/*
 * 
 */
<svg t="1612279265369" class="icon" viewBox="0 0 1024 1024" version="1.1" xmlns="http://www.w3.org/2000/svg" p-id="2210" width="200" height="200">
  <path d="M863.6 924.1h-696c-34.9 0-63.4-28.4-63.4-63.4v-696c0-34.9 28.4-63.4 63.4-63.4h290.5c12.4 0 22.4 10 22.4 22.4s-10 22.4-22.4 22.4H167.6c-10.2 0-18.5 8.3-18.5 18.5v696.1c0 10.2 8.3 18.5 18.5 18.5h696.1c10.2 0 18.5-8.3 18.5-18.5V540.6c0-12.4 10-22.4 22.4-22.4 12.4 0 22.4 10 22.4 22.4v320.2c0 34.9-28.4 63.3-63.4 63.3z" fill="#231815" p-id="2211"></path>
  <path d="M897.6 352.3c-11 0-20-8.9-20-20v-189H688.5c-11 0-20-8.9-20-20s8.9-20 20-20h209.1c11 0 20 8.9 20 20v209.1c0 11-9 19.9-20 19.9z" p-id="2212"></path>
  <path d="M483.4 556.5c-5.1 0-10.2-2-14.1-5.9-7.8-7.8-7.8-20.5 0-28.3l411.5-411.5c7.8-7.8 20.5-7.8 28.3 0 7.8 7.8 7.8 20.5 0 28.3L497.5 550.6c-3.9 3.9-9 5.9-14.1 5.9z" p-id="2213"></path>
</svg>
